{"title":"Divergent(2014)MPEG-4[DaScubaDude]","uid":13539310,"size":1395384471,"categoryP":"video","categoryS":"movies","magnet":"?xt=urn:btih:68899b73da364b4711aefda9c43e4daf128819ce&amp;dn=Divergent%282014%29MPEG-4%5BDaScubaDude%5D&amp;tr=udp%3A%2F%2Ftracker.leechers-paradise.org%3A6969&amp;tr=udp%3A%2F%2Fzer0day.ch%3A1337&amp;tr=udp%3A%2F%2Fopen.demonii.com%3A1337&amp;tr=udp%3A%2F%2Ftracker.coppersurfer.tk%3A6969&amp;tr=udp%3A%2F%2Fexodus.desync.com%3A6969","seeders":1,"leechers":0,"uploader":"dascuba","files":1,"time":1455470870,"description":"Divergent (2014)\r\nPG-13 | 2h 19min | Adventure, Mystery, Sci-Fi | 21 March 2014 (USA)\r\nIn a world divided by factions based on virtues, Tris learns she's Divergent and won't fit in. When she discovers a plot to destroy Divergents, Tris and the mysterious Four must find out what makes Divergents dangerous before it's too late.\r\nDirector: Neil Burger\r\nWriters: Evan Daugherty (screenplay), Vanessa Taylor (screenplay) | 1 more credit »\r\nStars: Shailene Woodley, Theo James, Kate Winslet \r\n\r\nGeneral\r\nComplete name                            :DivergentDivergent_Title18.mp4\r\nFormat                                   : MPEG-4\r\nFormat profile                           : Base Media\r\nCodec ID                                 : isom\r\nFile size                                : 1.30 GiB\r\nDuration                                 : 2h 19mn\r\nOverall bit rate                         : 1 333 Kbps\r\nMovie name                               : Divergent\r\nGenre                                    : Action\r\nWriting application                      : Lavf54.6.100\r\n\r\nVideo\r\nID                                       : 1\r\nFormat                                   : AVC\r\nFormat/Info                              : Advanced Video Codec\r\nFormat profile                           :   \r\nFormat settings, CABAC                   : No\r\nFormat settings, ReFrames                : 6 frames\r\nCodec ID                                 : avc1\r\nCodec ID/Info                            : Advanced Video Coding\r\nDuration                                 : 2h 19mn\r\nBit rate                                 : 1 198 Kbps\r\nWidth                                    : 720 pixels\r\nHeight                                   : 404 pixels\r\nDisplay aspect ratio                     : 16:9\r\nFrame rate mode                          : Constant\r\nFrame rate                               : 29.970 fps\r\nColor space                              : YUV\r\nChroma subsampling                       : 4:2:0\r\nBit depth                                : 8 bits\r\nScan type                                : Progressive\r\nBits/(Pixel*Frame)                       : 0.137\r\nStream size                              : 1.17 GiB (90%)\r\n\r\nAudio\r\nID                                       : 2\r\nFormat                                   : AAC\r\nFormat/Info                              : Advanced Audio Codec\r\nFormat profile                           : LC\r\nCodec ID                                 : 40\r\nDuration                                 : 2h 19mn\r\nBit rate mode                            : Constant\r\nBit rate                                 : 128 Kbps\r\nChannel(s)                               : 2 channels\r\nChannel positions                        : Front: L R\r\nSampling rate                            : 44.1 KHz\r\nCompression mode                         : Lossy\r\nStream size                              : 128 MiB (10%)","torrent":{"xt":"urn:btih:68899b73da364b4711aefda9c43e4daf128819ce","amp;dn":"Divergent%282014%29MPEG-4%5BDaScubaDude%5D","amp;tr":["udp%3A%2F%2Ftracker.leechers-paradise.org%3A6969","udp%3A%2F%2Fzer0day.ch%3A1337","udp%3A%2F%2Fopen.demonii.com%3A1337","udp%3A%2F%2Ftracker.coppersurfer.tk%3A6969","udp%3A%2F%2Fexodus.desync.com%3A6969"],"infoHash":"68899b73da364b4711aefda9c43e4daf128819ce","infoHashBuffer":{"type":"Buffer","data":[104,137,155,115,218,54,75,71,17,174,253,169,196,62,77,175,18,136,25,206]},"announce":[],"urlList":[]}}